<svg xmlns="http://www.w3.org/2000/svg" width="87" height="23" viewBox="0 0 87 23">
    <g fill="none" fill-rule="evenodd">
        <g fill="#FFF">
            <g>
                <g>
                    <path d="M32.048 10.022c-3.144 0-4.56-1.984-4.56-4.912 0-2.901 1.564-5.071 4.668-5.071 1.943 0 3.832.852 3.886 3.034h-2.186c-.108-.958-.755-1.464-1.7-1.464-1.903 0-2.483 2.024-2.483 3.568 0 1.53.58 3.314 2.415 3.314.959 0 1.66-.506 1.809-1.477h2.2c-.243 2.183-2.025 3.008-4.049 3.008M13.54 10.022c-2.105 0-3.832-.825-3.872-3.128h2.118c.027 1.025.634 1.637 1.795 1.637.864 0 1.835-.426 1.835-1.384 0-.745-.66-.985-1.754-1.291l-.702-.2c-1.538-.44-3.063-1.025-3.063-2.755C9.897.758 11.921.039 13.77.039c1.902 0 3.535.652 3.549 2.782H15.2c-.08-.879-.593-1.385-1.592-1.385-.783 0-1.565.413-1.565 1.265 0 .705.647.918 2.024 1.344l.81.253c1.673.52 2.725 1.092 2.725 2.69 0 2.195-2.145 3.034-4.062 3.034M22.398 8.411c.985 0 1.957-.226 1.957-1.397 0-1.145-.837-1.412-1.835-1.412h-1.673v2.81h1.551zm-.202-4.18c.931 0 1.875-.186 1.875-1.304 0-.998-.89-1.264-1.74-1.264h-1.484v2.569h1.349zm-3.4-4.006h3.386c1.067 0 1.498.027 1.916.12 1.188.266 2.079 1.025 2.079 2.316 0 1.238-.796 1.877-1.944 2.17 1.323.24 2.294.905 2.294 2.33 0 2.182-2.186 2.688-3.9 2.688h-3.832V.225zM6.349 5.736L2.126 5.736 2.126 9.849.007 9.849.007.225 2.126.225 2.126 4.165 6.349 4.165 6.349.225 8.468.225 8.468 9.849 6.349 9.849z" transform="translate(-32 -24) translate(32 24) translate(50.471 6.454)"/>
                </g>
                <g>
                    <path d="M11.701 0L23.402 11.5 35.103 0zM11.701 23L35.103 23 23.402 11.5zM35.103 23L46.804 11.5 35.103 0zM0 11.5L11.649 22.981 11.701 23 11.701 0z" transform="translate(-32 -24) translate(32 24)"/>
                </g>
            </g>
        </g>
    </g>
</svg>
